<svg xmlns="http://www.w3.org/2000/svg" width="50" height="50" viewBox="0 0 50 50" fill="none">
<circle cx="25" cy="25" r="25" fill="#DFDFDA"/>
<path d="M36 14H14V36H36V14Z" fill="#DFDFDA"/>
<path d="M25 27.75C25.9492 27.75 26.7188 26.9805 26.7188 26.0312C26.7188 25.082 25.9492 24.3125 25 24.3125C24.0508 24.3125 23.2812 25.082 23.2812 26.0312C23.2812 26.9805 24.0508 27.75 25 27.75Z" fill="#DFDFDA" stroke="#061858" stroke-width="1.5" stroke-linecap="round" stroke-linejoin="round"/>
<path d="M25 27.75V29.8125" stroke="#061858" stroke-width="1.5" stroke-linecap="round" stroke-linejoin="round"/>
<path d="M31.875 21.5625H18.125C17.7453 21.5625 17.4375 21.8703 17.4375 22.25V31.875C17.4375 32.2547 17.7453 32.5625 18.125 32.5625H31.875C32.2547 32.5625 32.5625 32.2547 32.5625 31.875V22.25C32.5625 21.8703 32.2547 21.5625 31.875 21.5625Z" fill="#DFDFDA" stroke="#061858" stroke-width="1.5" stroke-linecap="round" stroke-linejoin="round"/>
<path d="M21.9062 21.5625V18.4688C21.9062 17.6482 22.2322 16.8613 22.8124 16.2811C23.3926 15.7009 24.1795 15.375 25 15.375C25.8205 15.375 26.6074 15.7009 27.1876 16.2811C27.7678 16.8613 28.0938 17.6482 28.0938 18.4688V21.5625" fill="#DFDFDA"/>
<path d="M21.9062 21.5625V18.4688C21.9062 17.6482 22.2322 16.8613 22.8124 16.2811C23.3926 15.7009 24.1795 15.375 25 15.375C25.8205 15.375 26.6074 15.7009 27.1876 16.2811C27.7678 16.8613 28.0938 17.6482 28.0938 18.4688V21.5625" stroke="#061858" stroke-width="1.5" stroke-linecap="round" stroke-linejoin="round"/>
</svg>
