<?xml version="1.0" encoding="UTF-8"?>
<svg xmlns="http://www.w3.org/2000/svg" xmlns:xlink="http://www.w3.org/1999/xlink" xmlns:serif="http://www.serif.com/" width="100%" height="100%" viewBox="0 0 232 40" xml:space="preserve" style="fill-rule:evenodd;clip-rule:evenodd;stroke-linejoin:round;stroke-miterlimit:2;">
  <g>
    <path d="M29.928,2.611c1.592,-1.557 3.727,-2.334 6.4,-2.334c1.246,-0 2.362,0.112 3.354,0.331l0,6.099c-0.585,-0.112 -1.119,-0.165 -1.592,-0.165c-0.842,0 -1.477,0.238 -1.896,0.715c-0.423,0.477 -0.631,1.265 -0.631,2.361l0,3.296l3.846,0c0.212,0 0.385,0.173 0.385,0.384l0,5.438c0,0.212 -0.173,0.384 -0.385,0.384l-3.846,0l0,19.723c0,0.212 -0.173,0.385 -0.385,0.385l-7.254,0c-0.211,0 -0.385,-0.173 -0.385,-0.385l0,-19.723l-3.185,0c-0.212,0 -0.385,-0.173 -0.385,-0.384l0,-5.438c0,-0.211 0.173,-0.384 0.385,-0.384l3.185,0l0,-3.68c0,-2.857 0.796,-5.064 2.392,-6.622l-0.004,0Z" style="fill:#196efd;fill-rule:nonzero;"></path>
    <path d="M43.917,36.397c-2.196,-2.4 -3.296,-5.814 -3.296,-10.244c0,-4.43 1.1,-7.883 3.296,-10.356c2.196,-2.473 5.277,-3.707 9.231,-3.707c3.739,0 6.631,1.119 8.681,3.349c2.05,2.234 3.077,5.218 3.077,8.956c0,1.227 -0.061,2.377 -0.181,3.453c-0.023,0.196 -0.189,0.338 -0.385,0.338l-15.866,0c0.073,1.83 0.512,3.249 1.319,4.257c0.804,1.008 1.977,1.511 3.516,1.511c2.081,0 3.373,-0.804 3.877,-2.411c0.05,-0.165 0.196,-0.281 0.369,-0.281l6.516,0c0.235,0 0.419,0.211 0.381,0.442c-0.427,2.569 -1.55,4.572 -3.369,6.01c-1.923,1.519 -4.496,2.28 -7.72,2.28c-4.104,0 -7.254,-1.2 -9.45,-3.599l0.004,0Zm13.355,-13.267c0,-1.869 -0.358,-3.276 -1.073,-4.23c-0.716,-0.954 -1.75,-1.427 -3.104,-1.427c-1.466,0 -2.593,0.485 -3.381,1.457c-0.788,0.973 -1.2,2.373 -1.235,4.203l8.793,0l0,-0.004Z" style="fill:#196efd;fill-rule:nonzero;"></path>
    <path d="M69.776,36.258c-2.196,-2.492 -3.296,-5.895 -3.296,-10.217c0,-2.819 0.504,-5.284 1.512,-7.391c1.008,-2.107 2.454,-3.726 4.343,-4.861c1.885,-1.134 4.073,-1.704 6.566,-1.704c3.739,0 6.631,0.927 8.681,2.773c1.973,1.777 3.012,4.292 3.123,7.541c0.008,0.215 -0.169,0.4 -0.388,0.4l-7.05,0c-0.2,0 -0.361,-0.154 -0.385,-0.354c-0.242,-2.4 -1.531,-3.599 -3.873,-3.599c-1.427,0 -2.546,0.631 -3.354,1.896c-0.808,1.265 -1.208,3.03 -1.208,5.303c0,2.273 0.392,4.084 1.181,5.33c0.788,1.246 1.95,1.869 3.489,1.869c2.2,0 3.45,-1.13 3.754,-3.396c0.027,-0.192 0.185,-0.342 0.381,-0.342l7.046,0c0.223,0 0.404,0.192 0.385,0.415c-0.25,3.203 -1.346,5.668 -3.296,7.387c-2.035,1.796 -4.862,2.692 -8.489,2.692c-3.885,0 -6.923,-1.246 -9.123,-3.734l0.004,-0.008Z" style="fill:#196efd;fill-rule:nonzero;"></path>
    <path d="M97.462,37.497c-1.519,-1.446 -2.281,-3.545 -2.281,-6.291l0,-12.086l-2.966,0c-0.212,0 -0.385,-0.173 -0.385,-0.384l0,-5.822l3.35,0l0,-7.475c0,-0.212 0.173,-0.385 0.385,-0.385l7.254,0c0.212,0 0.385,0.173 0.385,0.385l0,7.472l3.9,0c0.211,0 0.384,0.173 0.384,0.384l0,5.437c0,0.211 -0.173,0.385 -0.384,0.385l-3.9,0l0,9.944c0,1.246 0.227,2.161 0.688,2.746c0.458,0.584 1.181,0.881 2.169,0.881c0.062,0 0.474,-0.027 1.235,-0.081c0.223,-0.015 0.415,0.162 0.415,0.385l0,5.914c0,0.184 -0.134,0.346 -0.315,0.381c-1.354,0.254 -2.658,0.377 -3.915,0.377c-2.493,0 -4.497,-0.723 -6.016,-2.169l-0.004,0.004Z" style="fill:#196efd;fill-rule:nonzero;"></path>
    <path d="M111.028,1.4c0.954,-0.934 2.142,-1.4 3.573,-1.4c1.431,0 2.627,0.477 3.6,1.427c0.97,0.954 1.458,2.142 1.458,3.572c0,1.43 -0.484,2.611 -1.458,3.545c-0.969,0.934 -2.169,1.4 -3.6,1.4c-1.431,0 -2.619,-0.465 -3.573,-1.4c-0.954,-0.934 -1.427,-2.115 -1.427,-3.545c0,-1.43 0.477,-2.665 1.427,-3.599Zm-0.054,11.509l7.2,0c0.212,0 0.385,0.173 0.385,0.384l0,25.545c0,0.211 -0.173,0.384 -0.385,0.384l-7.2,0c-0.211,0 -0.384,-0.173 -0.384,-0.384l0,-25.545c0,-0.211 0.173,-0.384 0.384,-0.384Z" style="fill:#196efd;fill-rule:nonzero;"></path>
    <path d="M143.737,13.928c1.593,1.154 2.82,2.773 3.681,4.861c0.862,2.088 1.292,4.507 1.292,7.252c0,2.746 -0.43,5.172 -1.292,7.279c-0.861,2.107 -2.088,3.738 -3.681,4.891c-1.592,1.154 -3.435,1.73 -5.523,1.73c-3.516,0 -5.973,-1.538 -7.362,-4.614l0,3.515c0,0.212 -0.173,0.385 -0.385,0.385l-7.2,0c-0.212,0 -0.385,-0.173 -0.385,-0.385l0,-37.689c0,-0.211 0.173,-0.385 0.385,-0.385l7.2,0c0.212,0 0.385,0.173 0.385,0.385l0,15.659c1.392,-3.076 3.846,-4.615 7.362,-4.615c2.088,0 3.931,0.577 5.523,1.73Zm-11.789,17.416c0.881,1.227 2.123,1.842 3.739,1.842c1.615,0 2.785,-0.611 3.627,-1.842c0.842,-1.227 1.265,-2.996 1.265,-5.303c0,-2.307 -0.423,-4.065 -1.265,-5.276c-0.842,-1.207 -2.054,-1.811 -3.627,-1.811c-1.573,0 -2.858,0.615 -3.739,1.842c-0.881,1.227 -1.319,2.976 -1.319,5.245c0,2.269 0.438,4.076 1.319,5.303Z" style="fill:#fff;fill-rule:nonzero;"></path>
    <path d="M155.338,38.212c-1.593,-1.154 -2.82,-2.784 -3.681,-4.891c-0.862,-2.107 -1.293,-4.534 -1.293,-7.279c0,-2.746 0.431,-5.164 1.293,-7.252c0.861,-2.088 2.088,-3.707 3.681,-4.861c1.592,-1.154 3.434,-1.73 5.523,-1.73c3.554,0 6.008,1.538 7.362,4.615l0,-3.515c0,-0.211 0.173,-0.384 0.384,-0.384l7.255,0c0.211,0 0.384,0.173 0.384,0.384l0,25.545c0,0.212 -0.173,0.385 -0.384,0.385l-7.255,0c-0.211,0 -0.384,-0.173 -0.384,-0.385l0,-3.515c-0.696,1.504 -1.669,2.646 -2.912,3.434c-1.246,0.788 -2.731,1.181 -4.45,1.181c-2.089,0 -3.931,-0.577 -5.523,-1.73Zm4.423,-6.868c0.842,1.227 2.069,1.842 3.681,1.842c1.611,0 2.804,-0.611 3.681,-1.842c0.881,-1.227 1.319,-2.996 1.319,-5.303c0,-2.307 -0.438,-4.018 -1.319,-5.245c-0.881,-1.227 -2.108,-1.842 -3.681,-1.842c-1.573,0 -2.839,0.604 -3.681,1.811c-0.842,1.207 -1.265,2.969 -1.265,5.276c0,2.307 0.419,4.076 1.265,5.303Z" style="fill:#fff;fill-rule:nonzero;"></path>
    <path d="M180.812,12.909l7.254,0c0.212,0 0.385,0.173 0.385,0.384l0,3.353c1.427,-2.969 3.919,-4.449 7.473,-4.449c2.6,0 4.596,0.834 5.989,2.5c1.392,1.669 2.088,4.111 2.088,7.333l0,16.812c0,0.212 -0.173,0.385 -0.384,0.385l-7.362,0c-0.212,0 -0.385,-0.173 -0.385,-0.385l0,-14.613c0,-1.831 -0.273,-3.169 -0.823,-4.011c-0.55,-0.842 -1.427,-1.265 -2.638,-1.265c-1.393,0 -2.401,0.496 -3.024,1.484c-0.623,0.988 -0.934,2.511 -0.934,4.561l0,13.844c0,0.212 -0.173,0.385 -0.385,0.385l-7.254,0c-0.212,0 -0.385,-0.173 -0.385,-0.385l0,-25.549c0,-0.211 0.173,-0.384 0.385,-0.384Z" style="fill:#fff;fill-rule:nonzero;"></path>
    <path d="M216.129,26.645l0,12.198c0,0.212 -0.173,0.385 -0.385,0.385l-7.2,0c-0.212,0 -0.385,-0.173 -0.385,-0.385l0,-37.689c0,-0.211 0.173,-0.385 0.385,-0.385l7.2,0c0.212,0 0.385,0.173 0.385,0.385l0,23.569l6.977,-11.625c0.069,-0.115 0.196,-0.188 0.331,-0.188l8.177,0c0.308,0 0.492,0.346 0.319,0.6l-7.942,11.652l7.904,13.486c0.15,0.258 -0.035,0.581 -0.331,0.581l-8.385,0c-0.142,0 -0.269,-0.077 -0.338,-0.2l-6.704,-12.378l-0.008,-0.004Z" style="fill:#fff;fill-rule:nonzero;"></path>
    <path d="M23.136,31.775l0,7.164c0,0.158 -0.127,0.288 -0.277,0.288l-17.662,0c-0.704,0 -1.385,-0.142 -2.023,-0.419c-1.927,-0.842 -3.169,-2.78 -3.169,-4.938c-0,-0.854 0.196,-1.696 0.569,-2.438c0.281,-0.573 0.662,-1.088 1.131,-1.53c0.062,-0.058 2.604,-2.253 7.55,-6.53l0.262,-0.227c0.065,-0.054 0.096,-0.138 0.085,-0.223c-0.012,-0.085 -0.065,-0.158 -0.142,-0.196l-7.031,-3.38c-1.519,-0.854 -2.427,-2.369 -2.427,-4.045c0,-1.557 0.758,-2.957 2.073,-3.842l18.716,-11.148c0.042,-0.023 0.088,-0.038 0.139,-0.038c0.135,0 0.277,0.112 0.277,0.288l0,8.268c0,0.104 -0.054,0.2 -0.139,0.25l-10.216,6.083c-0.081,0.046 -0.127,0.135 -0.123,0.231c0.004,0.092 0.062,0.177 0.142,0.215l0.408,0.192c1.996,0.946 8.073,3.826 8.143,3.861c0.446,0.242 1.192,0.827 1.181,1.946c-0.008,0.808 -0.242,1.407 -0.715,1.83c-0.065,0.062 -6.573,5.645 -8.85,7.595c-0.081,0.069 -0.111,0.181 -0.073,0.281c0.039,0.1 0.131,0.165 0.235,0.165l11.658,0c0.15,0 0.277,0.127 0.277,0.285l0.004,0.012Z" style="fill:#196efd;fill-rule:nonzero;"></path>
  </g>
</svg>
